PathFileType	4	(X/Y/Z)	C:\Users\WrightLab\Desktop\Jo\P4V128.trc
DataRate	CameraRate	NumFrames	NumMarkers	Units	OrigDataRate	OrigDataStartFrame	OrigNumFrames
100.00	100.00	       22	19	mm	100.00	123	       489
Frame#	Time	Headset_Front			Headset_Back			Headset_Left			Headset_Right			Left_Shoulder			Right_Shoulder			Sternum			C7			Left Elbow			Right Elbow			Left Wrist			Right Wrist			Left ASIS			Right ASIS			S2			Left Knee			Right Knee			Left Ankle			Right Ankle			
		X1	Y1	Z1	X2	Y2	Z2	X3	Y3	Z3	X4	Y4	Z4	X5	Y5	Z5	X6	Y6	Z6	X7	Y7	Z7	X8	Y8	Z8	X9	Y9	Z9	X10	Y10	Z10	X11	Y11	Z11	X12	Y12	Z12	X13	Y13	Z13	X14	Y14	Z14	X15	Y15	Z15	X16	Y16	Z16	X17	Y17	Z17	X18	Y18	Z18	X19	Y19	Z19	

123	1.220													-366.20300	1506.03943	-479.59366	-669.54431	1521.01453	-451.77176	-499.49823	1444.16724	-363.92841	-530.86121	1549.09351	-523.30585	-246.97603	1151.43555	-459.26535	-833.15729	1178.56433	-461.08649	-320.66849	918.93201	-264.95789	-825.33191	896.92413	-342.80371	-370.33038	997.31543	-438.00925	-690.24744	1040.40332	-348.09561				-462.40701	515.54816	-463.11298	-721.55713	591.11810	-229.91771	-600.51245	39.74574	-558.46948	-787.20001	113.01353	-395.16522	
124	1.230													-364.97318	1505.08740	-471.99069	-668.19611	1520.00256	-439.54559	-497.41571	1442.95813	-354.90161	-530.18176	1549.09656	-513.24048	-247.27490	1150.42847	-449.86673	-831.83264	1178.77417	-448.82321	-320.78290	921.69189	-253.31149	-822.94385	896.01117	-331.62991	-369.62689	997.65692	-429.82346	-687.84088	1039.46021	-334.87930				-461.81403	515.70929	-459.30960	-715.13605	591.30450	-214.69913	-603.30457	38.73761	-559.64514	-784.52942	107.07028	-360.41281	
125	1.240													-364.08298	1504.80420	-463.42499	-666.87573	1520.01355	-427.54190	-495.37781	1442.72595	-344.45731	-529.68481	1548.42529	-502.79532	-246.45561	1149.96436	-441.56396	-830.10083	1178.74988	-436.00952	-319.87622	923.70190	-240.03014	-820.18085	895.01007	-320.27591	-368.76965	997.02783	-422.35776	-685.04388	1037.88843	-325.72458				-461.57394	515.62787	-454.50574	-710.00946	591.27234	-201.82634	-603.30457	38.73761	-559.64514	-780.39630	100.04765	-322.81537	
126	1.250													-362.93158	1503.72314	-455.51038	-665.28949	1519.64990	-415.91821	-492.97470	1441.95959	-334.98346	-528.91266	1547.51184	-492.88052	-245.64937	1149.21753	-432.25107	-828.79846	1177.96509	-423.03403	-318.99493	925.84912	-228.20239	-817.84491	894.01666	-308.13260	-367.51056	996.67212	-414.38266	-683.82568	1038.17395	-313.95117				-461.11862	515.29272	-450.74707	-704.27240	590.18805	-190.22163	-603.12994	39.16891	-559.78979	-775.48773	94.37540	-286.63007	
127	1.260													-362.27051	1503.23706	-447.20673	-663.43890	1519.20947	-404.68390	-490.31662	1440.75037	-325.15698	-528.38727	1546.57593	-482.86157	-244.91492	1148.16760	-423.75302	-827.09601	1177.54749	-410.38797	-317.72159	927.97974	-216.63268	-815.02368	892.63110	-297.52890	-366.96851	996.13727	-405.29758	-681.90234	1035.44934	-304.28183				-461.19406	514.86938	-448.01990	-697.88049	589.54663	-176.44923	-603.84155	38.86727	-559.66315	-768.44397	89.51630	-251.43584	
128	1.270													-360.60190	1501.42664	-439.73611	-662.23700	1518.42749	-392.84009	-488.86725	1439.98328	-314.90305	-527.30792	1545.55823	-472.02515	-243.96307	1147.46667	-415.28705	-825.51526	1176.52148	-396.34421	-316.96060	929.37512	-204.87057	-811.72186	891.74573	-284.09601	-365.49091	994.92725	-396.95007	-678.88812	1035.47302	-291.40045				-460.97800	514.53943	-443.17294	-692.36688	587.62421	-164.22777	-604.44116	39.85180	-559.05780	-759.16425	85.69698	-217.97362	
129	1.280	-562.35492	1038.99646	-519.12677										-359.78262	1500.43628	-430.13824	-659.87286	1517.32239	-380.56613	-484.76883	1439.41077	-306.18640	-526.41064	1545.03101	-462.77386	-243.24884	1146.15405	-405.86020	-824.20685	1176.23694	-383.43604	-315.77887	930.60254	-192.78590	-809.92987	890.49432	-271.62219	-364.33029	994.50195	-389.27246	-677.00226	1033.16248	-278.88406				-460.97778	514.10522	-438.71481	-687.84717	586.24841	-152.59418	-605.21704	39.69552	-558.97418	-750.17664	80.98805	-182.48923	
130	1.290	-562.26984	1039.27539	-510.78522										-358.90448	1499.18921	-424.82477	-658.38123	1516.49854	-369.51804	-481.81720	1437.72998	-295.99014	-524.98138	1543.54114	-451.82275	-242.11398	1145.20435	-396.84000	-822.49255	1174.95337	-370.22946	-314.58273	931.26190	-181.98099	-807.18408	889.84070	-261.43552	-363.76596	993.06494	-380.62433	-675.37354	1030.05676	-275.72260				-460.12781	514.49860	-434.48074	-684.06494	585.59448	-141.90584	-604.98706	40.16610	-558.74078	-739.21973	77.26402	-148.19817	
131	1.300	-562.37469	1037.30042	-497.90088										-357.70096	1498.25220	-418.87796	-656.32349	1515.09302	-357.56137	-481.03012	1435.88684	-285.87149	-524.24023	1542.13965	-441.59277	-240.96638	1143.54065	-388.27768	-820.56409	1173.92102	-357.10410	-312.83856	932.14771	-171.60384	-804.18335	887.86798	-246.65663	-362.19980	992.28296	-371.83490	-672.75159	1028.77588	-261.94504				-460.12842	513.32019	-429.17819	-680.17474	583.36108	-130.03772	-602.23004	41.11227	-558.14423	-727.51526	74.90085	-116.17152	
132	1.310	-562.38379	1035.75745	-486.40814										-356.11514	1495.84521	-403.34460	-654.41998	1513.58398	-346.34851	-478.20532	1434.54504	-275.22842	-522.79810	1540.41858	-430.83548	-239.58057	1142.54028	-379.65988	-818.95306	1172.93848	-344.63980	-311.58176	932.30371	-160.41125	-801.73364	887.50580	-234.37889	-360.96729	990.52802	-362.30078	-670.52844	1028.16699	-243.44681				-459.33130	512.26782	-423.93011	-676.89392	581.04083	-118.88220	-601.56726	41.97129	-558.21576	-714.74603	72.66221	-84.60750	
133	1.320	-562.46045	1034.03894	-475.20285										-355.00031	1494.31396	-396.05841	-652.75781	1512.07471	-334.28787	-476.67007	1432.42334	-265.63300	-521.58820	1538.64624	-420.12378	-237.90346	1140.21228	-369.46423	-817.23773	1171.70435	-331.46255	-309.66180	931.89081	-149.45677	-797.88928	885.24084	-222.08774	-359.76868	988.63470	-353.50650	-668.95953	1024.85718	-233.18391				-458.92523	511.63809	-417.99170	-674.16321	578.68054	-108.78097	-601.31934	43.12648	-557.61731	-701.69800	70.82706	-54.58957	
134	1.330													-353.02301	1492.21411	-383.49515	-651.04175	1510.34766	-323.10974	-474.12341	1431.19421	-254.42418	-520.50543	1536.93945	-409.63214	-236.94380	1138.06238	-360.38580	-816.03040	1169.94019	-318.59930	-307.60144	931.45746	-139.13474	-796.01660	884.03864	-207.22011	-358.45694	987.04578	-344.98544	-666.89148	1022.40631	-222.45737				-458.63013	509.90338	-411.98190	-671.90887	576.23828	-98.72383	-601.49011	43.49280	-557.38269	-688.59155	69.82333	-24.57929	
135	1.340	-561.68188	1032.23486	-454.26184										-351.36172	1490.46851	-374.75156	-648.91046	1508.63733	-311.01089	-471.64969	1428.67261	-243.23387	-518.79694	1534.80725	-398.53152	-234.93291	1136.78662	-351.47745	-814.42981	1168.26453	-305.88721	-305.34460	930.45941	-128.62590	-792.35522	883.12714	-193.23114	-357.34277	984.97156	-335.57202	-664.44708	1020.95001	-209.40640				-458.28610	509.16531	-406.36154	-668.13391	572.91632	-87.66343	-603.09210	43.03391	-557.39709	-675.84760	70.64658	3.27117	
136	1.350	-561.55695	1029.84680	-441.87674										-349.87292	1487.70227	-364.85083	-646.79547	1506.48987	-300.01859	-469.82303	1426.75122	-233.45325	-517.36694	1532.71460	-387.49854	-233.22493	1134.28186	-341.61612	-812.57794	1166.02344	-292.61227	-302.85583	928.96796	-118.39326	-789.82098	881.90289	-180.26384	-355.92578	982.54657	-326.19833	-661.21545	1018.53021	-194.63336				-457.81702	507.56763	-399.27716	-665.28784	569.58960	-77.53616	-603.26465	43.92383	-556.37012	-662.07617	70.01253	29.66691	
137	1.360	-561.34808	1027.77112	-430.08594										-348.34729	1485.00879	-354.69095	-644.87268	1504.51184	-287.43921	-467.05243	1425.09521	-222.59605	-515.76758	1531.00671	-376.25842	-231.91054	1131.89795	-332.02698	-810.44977	1164.07410	-279.81540	-300.28046	927.27533	-107.83642	-786.62531	880.12592	-165.21124	-354.82422	981.29871	-316.37897	-658.97424	1016.31183	-183.14493				-457.32095	506.83466	-393.16028	-661.12048	566.12878	-65.77448	-604.73529	45.11272	-556.14673	-647.58136	70.39996	56.41551	
138	1.370	-561.17371	1025.93262	-417.70035										-346.64395	1483.80676	-344.37509	-642.92682	1502.45801	-276.33670	-464.37247	1421.97815	-211.34436	-514.07617	1528.90906	-364.81729	-229.97020	1129.55811	-321.95361	-809.00275	1162.62976	-267.45584	-297.79163	925.77478	-98.28452	-783.93250	878.30121	-154.90417	-353.27911	979.02588	-306.42313	-656.29742	1014.20203	-172.64619				-456.85696	505.72089	-387.09100	-657.88440	563.45990	-55.48994	-604.71295	47.15538	-554.84808	-634.70776	71.00390	79.57497	
139	1.380	-560.96997	1024.16772	-406.27155										-344.12823	1481.66077	-333.22833	-640.73456	1500.23389	-263.38724	-461.37039	1421.01453	-200.23465	-512.21625	1526.76099	-353.15991	-228.29539	1126.86804	-312.74094	-807.02686	1160.34131	-253.63608	-294.43195	923.49323	-87.59457	-781.53583	876.75854	-141.41570	-351.73346	977.58545	-296.68829	-653.56012	1011.78540	-159.55045				-456.25223	504.98785	-381.03381	-654.20111	561.30273	-44.13433	-604.05322	48.60257	-554.76086	-622.35504	71.61556	100.10513	
140	1.390	-560.23047	1023.07385	-393.96185										-342.78110	1479.48767	-325.84879	-638.73834	1498.28320	-251.65497	-459.15179	1419.35266	-189.00710	-511.03754	1525.52173	-342.17804	-225.88391	1125.17554	-302.72794	-805.00586	1158.63220	-240.82068	-291.83328	920.25446	-77.99468	-779.00299	875.44385	-126.68709	-350.22928	975.57739	-286.75842	-650.97504	1010.72620	-146.51657				-455.42355	504.31073	-373.12860	-649.02478	558.96643	-30.76932	-604.00635	50.28756	-553.42352	-610.37842	71.09201	118.30733	
141	1.400	-560.00549	1020.84210	-381.39667										-340.18890	1477.84155	-312.84781	-636.52643	1496.67749	-239.33740	-456.73776	1416.87231	-177.22688	-508.82782	1523.20605	-330.73203	-223.40697	1123.38818	-292.65506	-803.15564	1156.53162	-227.42868	-287.32791	917.62433	-68.58269	-776.21985	874.19305	-112.93634	-348.16483	974.63135	-276.16885	-648.06073	1009.21497	-134.65584				-453.87625	503.60803	-366.85068	-644.19202	558.15735	-16.95098	-604.56836	52.56548	-553.47180	-600.29303	70.18582	134.02486	
142	1.410	-559.78021	1019.05835	-369.26300										-338.24188	1476.38953	-301.97043	-634.26953	1494.63989	-227.49110	-454.77399	1415.30286	-166.15358	-506.67767	1521.91309	-318.76526	-221.75549	1121.40161	-282.91345	-800.73535	1154.38416	-214.10658	-284.48160	914.29034	-59.71817	-774.00281	873.00653	-98.23685	-346.89948	972.83978	-265.40414	-645.46234	1008.08966	-120.74580				-451.80011	503.45215	-359.89481	-638.33313	557.79321	-2.35851	-603.84778	54.23796	-551.93634	-590.91187	68.58744	147.11234	
143	1.420	-558.85687	1017.55432	-356.44608										-335.69171	1474.45691	-289.65421	-631.87860	1493.15808	-214.71970	-452.24426	1413.65332	-153.49907	-504.68494	1520.24170	-306.96136	-219.57816	1119.61548	-272.79309	-798.31744	1152.80310	-200.56409	-280.20505	910.92065	-49.94210	-770.87793	871.86670	-83.63852	-345.01816	971.59442	-254.41096	-642.35236	1007.33740	-108.53632				-449.60956	503.08569	-351.80817	-633.17859	557.90112	12.26261	-602.59143	57.83901	-550.97723	-583.36963	67.15313	158.55544	
144	1.430	-557.86505	1016.30627	-344.11951										-333.51187	1473.25610	-278.77664	-629.94946	1491.85864	-203.44437	-449.15002	1412.44629	-142.71538	-502.61963	1518.93542	-295.30579	-217.51961	1118.57776	-262.74817	-795.60284	1151.47510	-187.33185	-276.56931	907.81042	-41.39021	-767.89722	870.39868	-70.58066	-343.57846	970.77112	-242.99068	-639.39136	1005.89172	-94.65664				-447.01395	503.14935	-344.96249	-626.16473	558.11511	26.77406	-601.89893	60.64224	-549.48236	-576.30225	64.95216	167.21436	
